<?xml version="1.0" encoding="UTF-8"?>
<svg width="382px" height="544px" viewBox="0 0 382 544" version="1.1" xmlns="http://www.w3.org/2000/svg" xmlns:xlink="http://www.w3.org/1999/xlink">
    <title>Central Model</title>
    <g id="Page-1" stroke="none" stroke-width="1" fill="none" fill-rule="evenodd">
        <g id="Web-Pre-Game-Screen---R" transform="translate(-507.000000, -121.000000)" fill="#FFFFFF" stroke="#B9B9B9">
            <g id="Central-Model" transform="translate(507.000000, 121.000000)">
                <path d="M273.182897,136.464991 C279.964839,136.464991 286.74678,139.052214 291.921227,144.226661 C297.095674,149.401108 299.682897,156.183049 299.682897,162.964991 C299.682897,169.746932 297.095674,176.528874 291.921227,181.703321 L291.921227,181.703321 L245.252179,228.372368 C240.077733,233.546815 233.295791,236.134038 226.51385,236.134038 C219.731908,236.134038 212.949967,233.546815 207.77552,228.372368 C202.601073,223.197921 200.01385,216.41598 200.01385,209.634038 C200.01385,202.852097 202.601073,196.070156 207.77552,190.895709 L207.77552,190.895709 L254.444568,144.226661 C259.619014,139.052214 266.400956,136.464991 273.182897,136.464991 Z" id="Right-Hand" transform="translate(249.848374, 186.299515) rotate(103.000000) translate(-249.848374, -186.299515) "></path>
                <path d="M299.168035,206.527866 C305.410845,203.87795 312.664564,203.609586 319.449485,206.350872 C326.234406,209.092158 331.265873,214.324059 333.915788,220.566869 C336.565704,226.809679 336.834068,234.063398 334.092782,240.848319 L334.092782,240.848319 L305.248074,312.241476 C302.506788,319.026397 297.274887,324.057864 291.032077,326.70778 C284.789267,329.357695 277.535548,329.626059 270.750627,326.884773 C263.965707,324.143487 258.934239,318.911586 256.284324,312.668776 C253.634408,306.425966 253.366044,299.172247 256.10733,292.387326 L256.10733,292.387326 L284.952038,220.99417 C287.693324,214.209249 292.925225,209.177781 299.168035,206.527866 Z" id="Right-Hand" transform="translate(295.100056, 266.617823) rotate(-49.000000) translate(-295.100056, -266.617823) "></path>
                <path d="M73.7364709,103.971473 C79.7245698,100.787544 86.9272964,99.887998 93.9253175,102.027508 C100.923339,104.167018 106.39165,108.940489 109.575579,114.928587 C112.759507,120.916686 113.659053,128.119413 111.519543,135.117434 L111.519543,135.117434 L92.2230108,198.233548 C90.0835011,205.231569 85.3100301,210.69988 79.3219312,213.883809 C73.3338324,217.067738 66.1311057,217.967283 59.1330846,215.827774 C52.1350636,213.688264 46.6667522,208.914793 43.4828236,202.926694 C40.298895,196.938595 39.399349,189.735869 41.5388588,182.737848 L41.5388588,182.737848 L60.8353913,119.621734 C62.974901,112.623713 67.7483721,107.155401 73.7364709,103.971473 Z" id="Left-Hand" transform="translate(76.529201, 158.927641) rotate(71.000000) translate(-76.529201, -158.927641) "></path>
                <rect id="Left-Hand" transform="translate(39.183366, 120.679033) rotate(-1.000000) translate(-39.183366, -120.679033) " x="12.6833664" y="55.679033" width="53" height="130" rx="26.5"></rect>
                <rect id="Right-Leg" x="185.834524" y="413.834524" width="53" height="129.54" rx="26.5"></rect>
                <rect id="Right-Leg" x="185.834524" y="320.834524" width="53" height="129.54" rx="26.5"></rect>
                <rect id="Left-Leg" x="119.834524" y="410.834524" width="53" height="129.54" rx="26.5"></rect>
                <rect id="Left-Leg" x="119.834524" y="320.834524" width="53" height="129.54" rx="26.5"></rect>
                <rect id="Body" x="119.5" y="130.5" width="119" height="212" rx="8"></rect>
                <circle id="Head" cx="179" cy="60" r="59.5"></circle>
            </g>
        </g>
    </g>
</svg>